<?xml version="1.0" encoding="UTF-8" standalone="no"?>
<!-- Created with Inkscape (http://www.inkscape.org/) -->
<svg
   xmlns:svg="http://www.w3.org/2000/svg"
   xmlns="http://www.w3.org/2000/svg"
   xmlns:xlink="http://www.w3.org/1999/xlink"
   version="1.0"
   width="270"
   height="648"
   id="svg2461">
  <defs
     id="defs2463" />
  <g
     id="layer2"
     style="display:inline">
    <g
       transform="translate(387.50021,-8.9640806)"
       id="g3260">
      <g
         id="g3250">
        <path
           d="m -252,12 0,0 c 10.36136,0.545335 35.19884,-2.9659778 22.66667,64 -12.43638,66.45414 61.41971,18.442798 73.06004,66.25797 3.8317,15.73952 -2.39338,41.74203 -2.39338,41.74203 0,0 4.81551,21.9938 2.66667,41.33333 -0.79012,7.11111 -11.51107,35.65518 -10.81481,42.96297 0.5176,5.43272 5.2223,25.25195 5.08642,39.25926 -0.11359,11.70927 -3.97087,35.13131 -4.353,44.02194 -0.2244,5.22084 5.18978,37.62981 4.50114,43.63238 -0.5006,4.36355 -14.1938,27.75606 -16.5432,25.87654 -1.97531,-1.58025 7.06172,-25.92593 7.45678,-29.08642 0.49001,-3.92011 -4.74654,-17.42965 -6.66666,-17.33333 -3.20422,0.13822 0.23909,24.96553 -2.66667,24.96553 -2.54254,0 -9.21379,-15.39769 -9.21379,-22.29887 0,-5.81152 5.46693,-20.39899 5.21379,-29.33333 -0.4424,-15.61423 -9.7125,-35.05328 -10.1839,-50.66667 -0.28181,-9.33384 1.75481,-21.7216 1.33791,-31.02988 -0.59092,-13.19376 -5.82068,-43.63678 -5.82068,-43.63678 0,0 -7.62684,31.52823 -8,45.33333 -0.71857,26.58352 10.94953,61.40827 10.66667,88 -0.48135,45.25227 14.81594,49.74136 -4.98214,149.33333 5.78324,12.7221 5.90267,35.37466 3.39768,48.72644 -3.87875,20.67402 -14.5522,47.61192 -16.73102,63.27356 5.08508,14.5288 27.38853,36.72644 15.03905,36 0,0 -32.06298,1.33837 -36.37238,0 -3.55754,-1.10486 2.32163,-13.60291 1.49757,-35.58998 -0.62134,-16.57796 -6.57668,-39.67344 -6.66597,-61.96962 -0.051,-13.55937 -1.31331,-21.72871 4.95428,-50.00258 C -252.24816,433.72172 -252,382.35609 -252,382.35609"
           id="path2470"
           style="fill:none;stroke:#000000;stroke-width:1px;stroke-linecap:square;stroke-linejoin:miter;stroke-opacity:1" />
        <path
           d="m -199.48452,225.32174 c 1.51182,0 8.39405,-55.59406 0,-55.59406"
           id="path2474"
           style="fill:none;stroke:#000000;stroke-width:1px;stroke-linecap:butt;stroke-linejoin:miter;stroke-opacity:1" />
        <path
           d="m -252.02544,107.39149 c 9.03076,-0.16894 19.15245,-15.081128 22.04661,-27.587735"
           id="path3258"
           style="fill:none;stroke:#000000;stroke-width:1px;stroke-linecap:square;stroke-linejoin:miter;stroke-opacity:1" />
      </g>
      <use
         transform="matrix(-1,0,0,1,-505.00043,0)"
         id="use3256"
         x="0"
         y="0"
         width="270"
         height="648"
         xlink:href="#g3250" />
    </g>
  </g>
</svg>
